<svg xmlns="http://www.w3.org/2000/svg" width="1372" height="765" viewBox="0 0 1372 765">
<g>
<path d="M 668.50 688.06 C661.25,686.29 652.55,679.64 649.13,673.25 C648.47,672.01 645.69,670.68 641.30,669.50 C614.36,662.27 589.09,644.01 573.49,620.50 C552.06,588.19 546.58,552.42 557.17,514.00 C559.52,505.48 568.01,487.95 574.74,477.75 C579.13,471.08 591.53,457.66 599.32,451.14 L 603.14 447.94 L 601.45 442.72 C600.52,439.85 599.44,437.15 599.06,436.73 C598.03,435.60 586.98,444.30 575.17,455.53 C563.62,466.52 564.42,466.49 560.77,456.00 C558.70,450.09 558.50,447.74 558.54,430.00 C558.57,413.99 558.89,409.71 560.30,406.09 C561.25,403.67 561.81,401.47 561.55,401.21 C561.04,400.70 546.82,411.30 544.90,413.62 C542.95,415.97 542.30,415.20 541.17,409.25 C534.72,375.11 539.09,345.73 553.38,327.15 L 557.87 321.32 L 554.91 311.91 C543.22,274.81 550.55,252.92 575.50,250.41 C581.88,249.77 596.59,251.88 604.05,254.52 C606.36,255.33 608.67,256.00 609.18,256.00 C610.83,256.00 604.74,248.90 599.28,244.45 L 593.96 240.11 L 600.76 236.14 C611.65,229.78 619.03,227.69 628.50,228.27 C633.81,228.60 638.58,229.61 642.69,231.29 L 648.88 233.81 L 655.07 226.84 C661.35,219.77 673.85,209.00 675.77,209.00 C677.53,209.00 686.28,216.38 695.13,225.32 L 703.52 233.81 L 707.05 232.09 C713.90,228.76 719.77,227.70 727.79,228.32 C736.82,229.01 739.77,230.00 750.42,235.87 C757.91,240.00 758.23,240.31 756.11,241.44 C753.57,242.80 740.81,255.14 741.36,255.70 C741.56,255.89 742.91,255.61 744.35,255.06 C749.13,253.24 767.12,250.00 772.43,250.00 C781.30,250.00 787.64,252.51 793.45,258.33 C797.57,262.45 798.95,264.73 800.30,269.57 C803.26,280.14 801.76,297.04 796.56,311.73 C795.15,315.71 794.00,319.49 794.00,320.14 C794.00,320.79 795.84,323.75 798.09,326.73 C802.96,333.19 807.32,342.21 810.10,351.62 C813.06,361.63 813.76,384.68 811.58,400.26 C809.35,416.16 809.61,415.73 804.63,411.69 C799.80,407.77 789.73,400.94 789.35,401.32 C789.20,401.47 790.02,404.49 791.16,408.04 C792.69,412.79 793.37,418.08 793.72,428.00 C794.23,442.82 792.97,451.48 788.93,460.72 L 786.65 465.94 L 778.58 457.81 C770.75,449.94 760.40,441.19 754.73,437.66 C752.61,436.33 751.87,436.23 751.56,437.22 C751.34,437.92 750.51,440.52 749.72,443.00 L 748.29 447.50 L 758.14 456.84 C782.21,479.64 795.40,505.79 799.07,537.98 C801.86,562.43 796.10,590.19 783.81,611.63 C767.41,640.24 739.26,662.39 710.37,669.42 C703.63,671.06 703.06,671.43 700.15,675.92 C693.60,686.02 680.58,691.02 668.50,688.06 ZM 653.64 636.05 C663.03,625.61 676.59,622.96 688.96,629.14 C693.39,631.35 696.15,633.58 698.36,636.71 C701.17,640.69 701.80,641.09 704.50,640.55 C709.58,639.54 725.10,631.42 733.00,625.65 C755.47,609.22 769.95,580.33 769.99,551.84 C770.01,536.05 767.07,522.93 760.12,507.76 C757.24,501.48 747.19,487.16 743.15,483.60 L 741.00 481.69 L 741.00 487.13 C741.00,493.14 742.99,501.85 745.42,506.50 C747.86,511.18 747.38,512.75 741.75,518.37 C736.73,523.38 721.25,534.59 720.46,533.79 C720.25,533.58 719.72,529.94 719.29,525.69 L 718.50 517.98 L 711.50 522.59 C707.32,525.35 698.64,533.20 689.96,542.10 L 675.42 556.99 L 667.15 547.61 C657.32,536.47 650.06,529.81 640.30,522.98 L 633.10 517.94 L 632.60 521.22 C632.32,523.02 631.81,526.64 631.48,529.26 L 630.87 534.02 L 622.01 527.95 C611.75,520.92 605.00,514.08 605.00,510.71 C605.00,509.43 605.90,506.52 607.00,504.24 C609.36,499.35 611.13,488.15 610.13,484.41 C609.44,481.82 609.29,481.92 603.88,488.63 C596.26,498.06 591.85,505.81 587.71,517.00 C582.92,529.95 581.60,539.18 582.26,555.27 C582.85,569.79 585.20,579.19 591.40,591.93 C599.36,608.26 612.12,622.08 628.37,631.96 C632.45,634.44 646.90,640.97 648.35,640.99 C648.81,640.99 651.20,638.77 653.64,636.05 ZM 682.95 492.94 C691.26,491.59 702.97,486.70 706.22,483.22 C709.04,480.21 712.00,474.84 712.00,472.75 C712.00,472.00 709.86,470.45 707.25,469.30 C704.64,468.14 697.78,465.08 692.00,462.49 C686.22,459.90 679.99,457.42 678.14,456.97 C674.96,456.20 670.22,457.24 664.50,459.97 C655.04,464.47 643.08,469.84 641.21,470.43 C639.42,471.00 639.06,471.64 639.58,473.33 C640.70,476.96 643.12,481.38 645.28,483.74 C647.98,486.69 661.77,491.95 669.42,492.95 C672.77,493.39 675.72,493.80 676.00,493.87 C676.28,493.93 679.40,493.51 682.95,492.94 ZM 646.76 452.09 C654.81,449.15 664.66,443.28 666.94,440.08 C668.32,438.14 669.00,435.63 669.00,432.47 C669.00,428.13 668.61,427.38 664.25,423.26 C661.64,420.79 656.59,416.91 653.03,414.64 C649.47,412.36 645.78,409.15 644.83,407.49 C643.16,404.60 643.17,404.35 645.11,401.30 L 647.12 398.12 L 675.59 398.18 C703.35,398.24 704.09,398.29 705.53,400.34 C709.19,405.57 705.34,411.28 693.95,417.53 C689.98,419.70 685.67,422.88 684.37,424.59 C681.59,428.22 681.20,434.55 683.47,438.95 C686.13,444.09 702.61,452.74 711.58,453.70 C715.85,454.16 717.28,453.85 720.58,451.74 C727.38,447.40 731.80,441.40 733.11,434.71 C733.58,432.30 733.46,425.12 732.83,417.89 C732.22,410.95 732.04,403.58 732.43,401.51 C733.01,398.43 735.76,395.02 747.57,382.79 C755.51,374.57 762.29,366.69 762.64,365.28 C763.04,363.72 762.22,359.00 760.53,353.11 C759.02,347.83 755.84,336.41 753.46,327.73 C751.09,319.06 748.19,310.42 747.02,308.53 C743.53,302.89 723.08,287.88 710.69,281.87 L 705.87 279.54 L 698.19 283.46 C693.96,285.61 687.27,289.31 683.32,291.69 C679.37,294.06 675.92,296.00 675.65,296.00 C675.38,296.00 669.84,292.84 663.33,288.97 C648.49,280.16 645.52,279.17 640.91,281.53 C632.61,285.78 614.14,298.70 608.95,303.89 C602.87,309.97 602.91,309.89 597.48,330.50 C596.03,336.00 593.26,345.80 591.31,352.29 L 587.78 364.07 L 590.54 368.05 C592.05,370.24 598.84,377.82 605.63,384.90 C612.41,391.97 618.42,398.98 618.99,400.47 C619.70,402.35 619.66,407.40 618.86,416.98 C617.55,432.65 618.29,437.83 622.81,444.43 C626.33,449.56 633.35,454.00 637.96,454.00 C639.92,454.00 643.88,453.14 646.76,452.09 ZM 601.86 282.47 C604.14,280.97 606.00,279.42 606.00,279.03 C606.00,278.22 588.14,272.61 580.21,270.94 C575.74,269.99 574.55,270.07 572.46,271.43 C570.36,272.81 570.00,273.81 570.02,278.27 C570.04,285.21 572.29,295.51 575.08,301.44 L 577.34 306.25 L 587.53 295.73 C593.13,289.95 599.58,283.98 601.86,282.47 ZM 776.42 300.75 C781.06,290.25 782.56,275.38 779.35,271.83 C778.43,270.82 776.97,270.00 776.10,269.99 C773.62,269.98 745.00,278.16 745.02,278.87 C745.03,279.22 747.57,281.30 750.65,283.50 C753.74,285.70 760.10,291.66 764.79,296.75 C769.48,301.84 773.49,306.00 773.71,306.00 C773.93,306.00 775.15,303.64 776.42,300.75 ZM 941.50 485.91 C903.30,481.96 869.57,458.89 852.50,425.02 C846.16,412.44 843.08,399.63 842.29,382.46 C840.73,348.98 849.88,323.94 872.47,299.87 C883.24,288.39 901.94,276.73 917.04,272.07 C932.54,267.30 952.63,265.33 969.12,266.96 C990.98,269.12 1006.65,274.42 1023.28,285.28 C1031.15,290.42 1044.00,301.97 1044.00,303.91 C1044.00,304.42 1036.71,311.82 1027.80,320.35 L 1011.61 335.87 L 1004.88 329.53 C991.56,316.96 978.89,311.48 960.50,310.35 C942.44,309.24 925.92,314.84 913.40,326.31 C905.55,333.51 901.78,338.82 897.94,348.16 C891.20,364.49 890.35,382.23 895.55,397.74 C899.31,408.98 903.38,415.51 911.93,424.09 C920.18,432.36 929.43,437.68 940.46,440.48 C948.15,442.44 965.56,442.43 973.89,440.47 C983.54,438.19 995.01,431.74 1003.51,423.80 L 1010.94 416.86 L 1024.67 429.18 C1032.22,435.95 1039.95,442.89 1041.85,444.58 L 1045.30 447.66 L 1037.60 455.24 C1027.89,464.80 1017.50,472.00 1006.22,477.01 C987.54,485.30 965.27,488.36 941.50,485.91 ZM 80.84 477.27 C80.65,474.10 80.50,426.27 80.50,371.00 L 80.50 270.50 L 105.60 270.23 L 130.71 269.97 L 130.60 318.48 C130.55,345.17 130.79,367.00 131.15,367.00 C131.51,367.00 134.88,363.48 138.65,359.18 C142.42,354.87 159.23,336.35 176.00,318.01 C192.77,299.68 209.40,281.37 212.95,277.34 L 219.41 270.00 L 248.78 270.00 L 278.15 270.00 L 275.32 273.36 C273.77,275.20 265.75,284.06 257.50,293.04 C243.03,308.79 238.32,313.98 207.22,348.40 C197.72,358.91 193.23,364.60 193.81,365.36 C196.32,368.61 222.55,403.20 245.74,433.83 C260.16,452.90 274.45,471.52 277.49,475.21 C280.52,478.90 283.00,482.16 283.00,482.46 C283.00,482.76 269.61,483.00 253.23,483.00 L 223.47 483.00 L 215.36 472.25 C210.90,466.34 199.47,451.38 189.95,439.00 C180.44,426.62 169.73,412.67 166.16,408.00 C162.58,403.33 159.32,399.50 158.90,399.50 C158.48,399.50 151.88,406.38 144.23,414.78 L 130.33 430.06 L 130.15 456.28 L 129.98 482.50 L 105.58 482.77 L 81.19 483.03 L 80.84 477.27 ZM 305.00 376.50 L 305.00 270.00 L 326.31 270.00 L 347.62 270.00 L 369.56 297.32 C381.63,312.35 404.55,340.71 420.50,360.34 L 449.50 396.02 L 449.76 333.01 L 450.01 270.00 L 475.01 270.00 L 500.00 270.00 L 500.00 376.50 L 500.00 483.00 L 478.54 483.00 L 457.08 483.00 L 448.84 472.75 C444.30,467.11 429.57,448.77 416.10,432.00 C402.63,415.23 388.44,397.63 384.56,392.90 C380.67,388.17 372.33,377.91 366.00,370.10 L 354.50 355.90 L 354.24 419.45 L 353.99 483.00 L 329.49 483.00 L 305.00 483.00 L 305.00 376.50 ZM 1074.00 376.50 L 1074.00 270.00 L 1098.75 270.00 L 1123.50 270.00 L 1123.20 318.50 C1123.03,345.64 1123.28,367.00 1123.77,367.00 C1124.25,367.00 1136.76,353.62 1151.57,337.27 C1166.38,320.93 1186.29,299.10 1195.82,288.77 L 1213.14 270.00 L 1242.14 270.00 L 1271.15 270.00 L 1258.82 283.56 C1252.05,291.01 1242.68,301.29 1238.00,306.40 C1226.56,318.90 1194.45,354.29 1189.61,359.74 C1186.18,363.60 1185.86,364.38 1186.91,366.31 C1188.09,368.48 1193.81,376.02 1223.51,414.50 C1247.24,445.25 1275.00,481.90 1275.00,482.48 C1275.00,482.76 1261.77,483.00 1245.61,483.00 C1223.03,483.00 1216.09,482.71 1215.70,481.75 C1215.42,481.06 1210.37,474.42 1204.49,467.00 C1198.61,459.58 1191.91,450.99 1189.61,447.92 C1187.30,444.85 1183.82,440.35 1181.88,437.92 C1179.94,435.49 1172.80,426.30 1166.03,417.50 C1159.25,408.70 1153.33,401.08 1152.87,400.57 C1151.79,399.36 1150.20,400.84 1135.36,416.78 L 1123.00 430.06 L 1123.00 456.53 L 1123.00 483.00 L 1098.50 483.00 L 1074.00 483.00 L 1074.00 376.50 ZM 646.03 390.00 C646.01,389.73 645.12,383.45 644.05,376.06 C641.62,359.29 640.95,358.25 630.72,355.41 C618.54,352.03 610.37,345.56 608.47,337.81 C607.84,335.24 608.08,335.03 613.44,333.47 C620.34,331.47 629.26,331.41 634.85,333.34 C640.30,335.21 649.37,340.74 652.68,344.19 C655.28,346.91 655.29,346.93 654.07,354.71 C651.38,371.84 646.30,394.14 646.03,390.00 ZM 702.16 381.75 C699.33,370.82 697.00,356.90 697.00,350.87 C697.00,345.29 698.00,343.97 706.16,338.77 C712.68,334.63 714.03,334.06 721.00,332.59 C729.63,330.77 743.00,333.24 743.00,336.66 C743.00,338.73 739.51,345.23 737.36,347.18 C734.48,349.78 723.91,354.74 719.49,355.57 C717.06,356.02 714.29,357.52 712.41,359.41 C709.51,362.32 709.22,363.31 707.54,376.25 C706.56,383.81 705.43,390.00 705.03,390.00 C704.63,390.00 703.34,386.29 702.16,381.75 Z" fill="rgba(0,0,0,1)"/>
</g>
</svg>